<?xml version="1.0" encoding="UTF-8" standalone="no"?>
<!DOCTYPE svg PUBLIC "-//W3C//DTD SVG 1.1//EN" "http://www.w3.org/Graphics/SVG/1.1/DTD/svg11.dtd">
<svg version="1.1" xmlns="http://www.w3.org/2000/svg" xmlns:xlink="http://www.w3.org/1999/xlink" preserveAspectRatio="xMidYMid meet" viewBox="0 0 512 512" width="512" height="512"><defs><path d="M512 256C512 397.29 397.29 512 256 512C114.71 512 0 397.29 0 256C0 114.71 114.71 0 256 0C397.29 0 512 114.71 512 256Z" id="h33KnF0PmH"></path><path d="M232.93 102C243.46 102 252 110.54 252 121.07C252 147.25 252 206.75 252 232.93C252 243.46 243.46 252 232.93 252C206.75 252 147.25 252 121.07 252C110.54 252 102 243.46 102 232.93C102 206.75 102 147.25 102 121.07C102 110.54 110.54 102 121.07 102C147.25 102 206.75 102 232.93 102Z" id="f2QR7cahC"></path><path d="M232.93 260C243.46 260 252 268.54 252 279.07C252 305.25 252 364.75 252 390.93C252 401.46 243.46 410 232.93 410C206.75 410 147.25 410 121.07 410C110.54 410 102 401.46 102 390.93C102 364.75 102 305.25 102 279.07C102 268.54 110.54 260 121.07 260C147.25 260 206.75 260 232.93 260Z" id="c4SOCjDWjT"></path><path d="M390.93 260C401.46 260 410 268.54 410 279.07C410 305.25 410 364.75 410 390.93C410 401.46 401.46 410 390.93 410C364.75 410 305.25 410 279.07 410C268.54 410 260 401.46 260 390.93C260 364.75 260 305.25 260 279.07C260 268.54 268.54 260 279.07 260C305.25 260 364.75 260 390.93 260Z" id="c3K8sUwiB6"></path><path d="M390.93 102C401.46 102 410 110.54 410 121.07C410 147.25 410 206.75 410 232.93C410 243.46 401.46 252 390.93 252C364.75 252 305.25 252 279.07 252C268.54 252 260 243.46 260 232.93C260 206.75 260 147.25 260 121.07C260 110.54 268.54 102 279.07 102C305.25 102 364.75 102 390.93 102Z" id="bj6Tv7Ajg"></path></defs><g><g><g><use xlink:href="#h33KnF0PmH" opacity="1" fill="#fbeed7" fill-opacity="1"></use></g><g><use xlink:href="#f2QR7cahC" opacity="1" fill="#665c84" fill-opacity="1"></use></g><g><use xlink:href="#c4SOCjDWjT" opacity="1" fill="#ffba5a" fill-opacity="1"></use></g><g><use xlink:href="#c3K8sUwiB6" opacity="1" fill="#53d397" fill-opacity="1"></use></g><g><use xlink:href="#bj6Tv7Ajg" opacity="1" fill="#ff7657" fill-opacity="1"></use></g></g></g></svg>